# xmcd
#
# Track frame offsets: 
#        150
#        12355
#        25610
#        33347
#        45937
#        58780
#        72902
#        99522
#        109737
#        125425
#
# Disc length: 1935 seconds
#
# Revision: 4
# Processed by: cddbd v1.5.1PL0 Copyright (c) Steve Scherf et al.
# Submitted via: ExactAudioCopy v0.95a5
#
DISCID=78078d0a
DTITLE=Various Artist - Raw Blues- Volume 3
DYEAR=1900
DGENRE=Blues
TTITLE0=John Lee Hooker - I'm In the Mood
TTITLE1=Muddy Waters - Can't Loose What You Never Had
TTITLE2=Big Joe Williams - Terraplane Blues
TTITLE3=Lightnin' Hopkins - Life I Used To Live
TTITLE4=Jimmy Reed - Shame, Shame, Shame
TTITLE5=Canned Heat - Rolling and Tumbling
TTITLE6=Mike Bloomfield - Knockin' Myself Out
TTITLE7=Memphis Slim - Little Lonely Girl
TTITLE8=Rufus Thomas - Come Here Mama
TTITLE9=Little Walter and Otis Rush - Goin' Down Slow
EXTD=LABEL =Music Trax, Inc.\nID =MTI9070\nUPC =641582-907020\nCOPY
EXTD=RIGHT =none
EXTT0=
EXTT1=
EXTT2=
EXTT3=
EXTT4=
EXTT5=
EXTT6=
EXTT7=
EXTT8=
EXTT9=
PLAYORDER=
